# xmcd
#
# Track frame offsets: 
#        150
#        23103
#        39107
#        62280
#        82886
#        104248
#        125800
#        139450
#        160576
#        191179
#        204794
#        217993
#        230776
#        249274
#        270620
#        290991
#
# Disc length: 4207 seconds
#
# Revision: 0
# Processed by: cddbd v1.5.2PL0 Copyright (c) Steve Scherf et al.
# Submitted via: ExactAudioCopy v1.0b4
#
DISCID=e9106d10
DTITLE=Peter Green - The Anthology [disk 4 ]
DYEAR=2008
DGENRE=Blues Rock
TTITLE0=Big Change Is Gonna Come
TTITLE1=I'm A Steady Rollin' Man Ft. Otis Rush
TTITLE2=It Takes Time
TTITLE3=Don't Walk Away
TTITLE4=Heart Of Stone
TTITLE5=Love In Vain Blues
TTITLE6=From Four Until Late Ft. Dr. John
TTITLE7=I'm Ready For You
TTITLE8=Cruel Contradictions
TTITLE9=Me And The Devil Blues
TTITLE10=Cross Road Blues Ft. Buddy Guy
TTITLE11=Dead Shrimp Blues Ft. Hubert Sumlin
TTITLE12=Travelling Riverside Blues Ft. Joe Louis Walker&Honey Boy Edw
TTITLE12=ards
TTITLE13=Time Keeps Slippin' Away
TTITLE14=Look Out For Yourself
TTITLE15=Albatross
EXTD=
EXTT0=
EXTT1=
EXTT2=
EXTT3=
EXTT4=
EXTT5=
EXTT6=
EXTT7=
EXTT8=
EXTT9=
EXTT10=
EXTT11=
EXTT12=
EXTT13=
EXTT14=
EXTT15=
PLAYORDER=
